<svg xmlns="http://www.w3.org/2000/svg" xmlns:xlink="http://www.w3.org/1999/xlink" contentStyleType="text/css" height="567px" preserveAspectRatio="none" style="width:1122px;height:567px;background:#FFFFFF;" version="1.1" viewBox="0 0 1122 567" width="1122px" zoomAndPan="magnify"><title>Search Post by Keyword</title><defs/><g><text fill="#000000" font-family="sans-serif" font-size="14" font-weight="bold" lengthAdjust="spacing" textLength="164.165" x="475.9268" y="30.1074">Search Post by Keyword</text><rect fill="#FFB6C1" height="516.3555" style="stroke:#181818;stroke-width:0.5;" width="277.5854" x="209.7446" y="45.6211"/><text fill="#000000" font-family="sans-serif" font-size="13" font-weight="bold" lengthAdjust="spacing" textLength="62.0928" x="317.491" y="59.6494">Front-End</text><rect fill="#90EE90" height="516.3555" style="stroke:#181818;stroke-width:0.5;" width="567.4507" x="548.5679" y="45.6211"/><text fill="#000000" font-family="sans-serif" font-size="13" font-weight="bold" lengthAdjust="spacing" textLength="70.8018" x="796.8923" y="59.6494">Back-End 1</text><rect fill="#FFFFFF" height="356.5313" style="stroke:#181818;stroke-width:1.0;" width="10" x="263.21" y="133.8242"/><rect fill="#FFFFFF" height="293.9492" style="stroke:#181818;stroke-width:1.0;" width="10" x="432.0371" y="165.1152"/><rect fill="#FFFFFF" height="231.3672" style="stroke:#181818;stroke-width:1.0;" width="10" x="600.8643" y="196.4063"/><rect fill="#FFFFFF" height="93.873" style="stroke:#181818;stroke-width:1.0;" width="10" x="902.0146" y="227.6973"/><rect fill="#FFFFFF" height="31.291" style="stroke:#181818;stroke-width:1.0;" width="10" x="1075.8945" y="258.9883"/><line style="stroke:#181818;stroke-width:0.5;stroke-dasharray:5.0,5.0;" x1="22" x2="22" y1="100.5332" y2="508.3555"/><line style="stroke:#181818;stroke-width:0.5;stroke-dasharray:5.0,5.0;" x1="267.7446" x2="267.7446" y1="100.5332" y2="508.3555"/><line style="stroke:#181818;stroke-width:0.5;stroke-dasharray:5.0,5.0;" x1="436.7441" x2="436.7441" y1="100.5332" y2="508.3555"/><line style="stroke:#181818;stroke-width:0.5;stroke-dasharray:5.0,5.0;" x1="605.5679" x2="605.5679" y1="100.5332" y2="508.3555"/><line style="stroke:#181818;stroke-width:0.5;stroke-dasharray:5.0,5.0;" x1="803.3496" x2="803.3496" y1="361.3809" y2="508.3555"/><line style="stroke:#181818;stroke-width:0.5;stroke-dasharray:5.0,5.0;" x1="906.7217" x2="906.7217" y1="100.5332" y2="508.3555"/><line style="stroke:#181818;stroke-width:0.5;stroke-dasharray:5.0,5.0;" x1="1080.7705" x2="1080.7705" y1="100.5332" y2="508.3555"/><text fill="#000000" font-family="sans-serif" font-size="14" lengthAdjust="spacing" textLength="29.5586" x="5" y="97.0195">User</text><ellipse cx="22.7793" cy="65.9121" fill="#E2E2F0" rx="12" ry="12" style="stroke:#181818;stroke-width:0.5;"/><line style="stroke:#181818;stroke-width:0.5;" x1="10.7793" x2="34.7793" y1="79.9121" y2="79.9121"/><text fill="#000000" font-family="sans-serif" font-size="14" lengthAdjust="spacing" textLength="29.5586" x="5" y="522.4629">User</text><ellipse cx="22.7793" cy="541.9766" fill="#E2E2F0" rx="12" ry="12" style="stroke:#181818;stroke-width:0.5;"/><line style="stroke:#181818;stroke-width:0.5;" x1="10.7793" x2="34.7793" y1="555.9766" y2="555.9766"/><rect fill="#E2E2F0" height="32.6211" rx="2.5" ry="2.5" style="stroke:#181818;stroke-width:0.5;" width="108.9307" x="213.7446" y="66.9121"/><text fill="#000000" font-family="sans-serif" font-size="14" lengthAdjust="spacing" textLength="94.9307" x="220.7446" y="89.0195">UI - Application</text><rect fill="#E2E2F0" height="32.6211" rx="2.5" ry="2.5" style="stroke:#181818;stroke-width:0.5;" width="108.9307" x="213.7446" y="507.3555"/><text fill="#000000" font-family="sans-serif" font-size="14" lengthAdjust="spacing" textLength="94.9307" x="220.7446" y="529.4629">UI - Application</text><rect fill="#E2E2F0" height="32.6211" rx="2.5" ry="2.5" style="stroke:#181818;stroke-width:0.5;" width="92.5859" x="390.7441" y="66.9121"/><text fill="#000000" font-family="sans-serif" font-size="14" lengthAdjust="spacing" textLength="78.5859" x="397.7441" y="89.0195">Post Service</text><rect fill="#E2E2F0" height="32.6211" rx="2.5" ry="2.5" style="stroke:#181818;stroke-width:0.5;" width="92.5859" x="390.7441" y="507.3555"/><text fill="#000000" font-family="sans-serif" font-size="14" lengthAdjust="spacing" textLength="78.5859" x="397.7441" y="529.4629">Post Service</text><rect fill="#E2E2F0" height="32.6211" rx="2.5" ry="2.5" style="stroke:#181818;stroke-width:0.5;" width="106.5928" x="552.5679" y="66.9121"/><text fill="#000000" font-family="sans-serif" font-size="14" lengthAdjust="spacing" textLength="92.5928" x="559.5679" y="89.0195">Post Controller</text><rect fill="#E2E2F0" height="32.6211" rx="2.5" ry="2.5" style="stroke:#181818;stroke-width:0.5;" width="106.5928" x="552.5679" y="507.3555"/><text fill="#000000" font-family="sans-serif" font-size="14" lengthAdjust="spacing" textLength="92.5928" x="559.5679" y="529.4629">Post Controller</text><rect fill="#E2E2F0" height="32.6211" rx="2.5" ry="2.5" style="stroke:#181818;stroke-width:0.5;" width="93.3721" x="757.3496" y="507.3555"/><text fill="#000000" font-family="sans-serif" font-size="14" lengthAdjust="spacing" textLength="79.3721" x="764.3496" y="529.4629">Post Mapper</text><rect fill="#E2E2F0" height="32.6211" rx="2.5" ry="2.5" style="stroke:#181818;stroke-width:0.5;" width="92.5859" x="860.7217" y="66.9121"/><text fill="#000000" font-family="sans-serif" font-size="14" lengthAdjust="spacing" textLength="78.5859" x="867.7217" y="89.0195">Post Service</text><rect fill="#E2E2F0" height="32.6211" rx="2.5" ry="2.5" style="stroke:#181818;stroke-width:0.5;" width="92.5859" x="860.7217" y="507.3555"/><text fill="#000000" font-family="sans-serif" font-size="14" lengthAdjust="spacing" textLength="78.5859" x="867.7217" y="529.4629">Post Service</text><rect fill="#E2E2F0" height="32.6211" rx="2.5" ry="2.5" style="stroke:#181818;stroke-width:0.5;" width="62.248" x="1049.7705" y="66.9121"/><text fill="#000000" font-family="sans-serif" font-size="14" lengthAdjust="spacing" textLength="48.248" x="1056.7705" y="89.0195">Context</text><rect fill="#E2E2F0" height="32.6211" rx="2.5" ry="2.5" style="stroke:#181818;stroke-width:0.5;" width="62.248" x="1049.7705" y="507.3555"/><text fill="#000000" font-family="sans-serif" font-size="14" lengthAdjust="spacing" textLength="48.248" x="1056.7705" y="529.4629">Context</text><rect fill="#FFFFFF" height="356.5313" style="stroke:#181818;stroke-width:1.0;" width="10" x="263.21" y="133.8242"/><rect fill="#FFFFFF" height="293.9492" style="stroke:#181818;stroke-width:1.0;" width="10" x="432.0371" y="165.1152"/><rect fill="#FFFFFF" height="231.3672" style="stroke:#181818;stroke-width:1.0;" width="10" x="600.8643" y="196.4063"/><rect fill="#FFFFFF" height="93.873" style="stroke:#181818;stroke-width:1.0;" width="10" x="902.0146" y="227.6973"/><rect fill="#FFFFFF" height="31.291" style="stroke:#181818;stroke-width:1.0;" width="10" x="1075.8945" y="258.9883"/><polygon fill="#181818" points="251.21,129.8242,261.21,133.8242,251.21,137.8242,255.21,133.8242" style="stroke:#181818;stroke-width:1.0;"/><line style="stroke:#181818;stroke-width:1.0;" x1="22.7793" x2="257.21" y1="133.8242" y2="133.8242"/><text fill="#000000" font-family="sans-serif" font-size="13" font-weight="bold" lengthAdjust="spacing" textLength="7.23" x="29.7793" y="128.5615">1</text><text fill="#000000" font-family="sans-serif" font-size="13" lengthAdjust="spacing" textLength="170.5234" x="41.0093" y="128.5615">Types keyword on search bar</text><polygon fill="#181818" points="420.0371,161.1152,430.0371,165.1152,420.0371,169.1152,424.0371,165.1152" style="stroke:#181818;stroke-width:1.0;"/><line style="stroke:#181818;stroke-width:1.0;" x1="273.21" x2="426.0371" y1="165.1152" y2="165.1152"/><text fill="#000000" font-family="sans-serif" font-size="13" font-weight="bold" lengthAdjust="spacing" textLength="7.23" x="280.21" y="159.8525">2</text><text fill="#000000" font-family="sans-serif" font-size="13" lengthAdjust="spacing" textLength="128.5972" x="291.4399" y="159.8525">searchPosts(keyword)</text><polygon fill="#181818" points="588.8643,192.4063,598.8643,196.4063,588.8643,200.4063,592.8643,196.4063" style="stroke:#181818;stroke-width:1.0;"/><line style="stroke:#181818;stroke-width:1.0;" x1="442.0371" x2="594.8643" y1="196.4063" y2="196.4063"/><text fill="#000000" font-family="sans-serif" font-size="13" font-weight="bold" lengthAdjust="spacing" textLength="7.23" x="449.0371" y="191.1436">3</text><text fill="#000000" font-family="sans-serif" font-size="13" lengthAdjust="spacing" textLength="128.5972" x="460.2671" y="191.1436">searchPosts(keyword)</text><polygon fill="#181818" points="890.0146,223.6973,900.0146,227.6973,890.0146,231.6973,894.0146,227.6973" style="stroke:#181818;stroke-width:1.0;"/><line style="stroke:#181818;stroke-width:1.0;" x1="610.8643" x2="896.0146" y1="227.6973" y2="227.6973"/><text fill="#000000" font-family="sans-serif" font-size="13" font-weight="bold" lengthAdjust="spacing" textLength="7.23" x="617.8643" y="222.4346">4</text><text fill="#000000" font-family="sans-serif" font-size="13" lengthAdjust="spacing" textLength="196.5171" x="629.0942" y="222.4346">SearchPostsByKeyword(keyword)</text><polygon fill="#181818" points="1063.8945,254.9883,1073.8945,258.9883,1063.8945,262.9883,1067.8945,258.9883" style="stroke:#181818;stroke-width:1.0;"/><line style="stroke:#181818;stroke-width:1.0;" x1="912.0146" x2="1069.8945" y1="258.9883" y2="258.9883"/><text fill="#000000" font-family="sans-serif" font-size="13" font-weight="bold" lengthAdjust="spacing" textLength="7.23" x="919.0146" y="253.7256">5</text><text fill="#000000" font-family="sans-serif" font-size="13" lengthAdjust="spacing" textLength="133.6499" x="930.2446" y="253.7256">getPostsWith(keyword)</text><polygon fill="#181818" points="923.0146,286.2793,913.0146,290.2793,923.0146,294.2793,919.0146,290.2793" style="stroke:#181818;stroke-width:1.0;"/><line style="stroke:#181818;stroke-width:1.0;" x1="917.0146" x2="1079.8945" y1="290.2793" y2="290.2793"/><text fill="#000000" font-family="sans-serif" font-size="13" font-weight="bold" lengthAdjust="spacing" textLength="7.23" x="929.0146" y="285.0166">6</text><text fill="#000000" font-family="sans-serif" font-size="13" lengthAdjust="spacing" textLength="31.0718" x="940.2446" y="285.0166">posts</text><polygon fill="#181818" points="621.8643,317.5703,611.8643,321.5703,621.8643,325.5703,617.8643,321.5703" style="stroke:#181818;stroke-width:1.0;"/><line style="stroke:#181818;stroke-width:1.0;" x1="615.8643" x2="906.0146" y1="321.5703" y2="321.5703"/><text fill="#000000" font-family="sans-serif" font-size="13" font-weight="bold" lengthAdjust="spacing" textLength="7.23" x="627.8643" y="316.3076">7</text><text fill="#000000" font-family="sans-serif" font-size="13" lengthAdjust="spacing" textLength="68.6436" x="639.0942" y="316.3076">return posts</text><polygon fill="#181818" points="745.3496,348.8613,755.3496,352.8613,745.3496,356.8613,749.3496,352.8613" style="stroke:#181818;stroke-width:1.0;"/><line style="stroke:#181818;stroke-width:1.0;" x1="610.8643" x2="751.3496" y1="352.8613" y2="352.8613"/><text fill="#000000" font-family="sans-serif" font-size="13" font-weight="bold" lengthAdjust="spacing" textLength="7.23" x="617.8643" y="347.5986">8</text><text fill="#000000" font-family="sans-serif" font-size="13" lengthAdjust="spacing" textLength="111.2554" x="629.0942" y="347.5986">ToDTO(List&lt;post&gt;)</text><rect fill="#E2E2F0" height="32.6211" rx="2.5" ry="2.5" style="stroke:#181818;stroke-width:0.5;" width="93.3721" x="757.3496" y="329.5703"/><text fill="#000000" font-family="sans-serif" font-size="14" lengthAdjust="spacing" textLength="79.3721" x="764.3496" y="351.6777">Post Mapper</text><polygon fill="#181818" points="621.8643,392.4824,611.8643,396.4824,621.8643,400.4824,617.8643,396.4824" style="stroke:#181818;stroke-width:1.0;"/><line style="stroke:#181818;stroke-width:1.0;" x1="615.8643" x2="803.0356" y1="396.4824" y2="396.4824"/><text fill="#000000" font-family="sans-serif" font-size="13" font-weight="bold" lengthAdjust="spacing" textLength="7.23" x="627.8643" y="391.2197">9</text><text fill="#000000" font-family="sans-serif" font-size="13" lengthAdjust="spacing" textLength="97.5254" x="639.0942" y="391.2197">return PostsDTO</text><polygon fill="#181818" points="453.0371,423.7734,443.0371,427.7734,453.0371,431.7734,449.0371,427.7734" style="stroke:#181818;stroke-width:1.0;"/><line style="stroke:#181818;stroke-width:1.0;" x1="447.0371" x2="604.8643" y1="427.7734" y2="427.7734"/><text fill="#000000" font-family="sans-serif" font-size="13" font-weight="bold" lengthAdjust="spacing" textLength="14.46" x="459.0371" y="422.5107">10</text><text fill="#000000" font-family="sans-serif" font-size="13" lengthAdjust="spacing" textLength="97.5254" x="477.4971" y="422.5107">return PostsDTO</text><polygon fill="#181818" points="284.21,455.0645,274.21,459.0645,284.21,463.0645,280.21,459.0645" style="stroke:#181818;stroke-width:1.0;"/><line style="stroke:#181818;stroke-width:1.0;" x1="278.21" x2="436.0371" y1="459.0645" y2="459.0645"/><text fill="#000000" font-family="sans-serif" font-size="13" font-weight="bold" lengthAdjust="spacing" textLength="14.46" x="290.21" y="453.8018">11</text><text fill="#000000" font-family="sans-serif" font-size="13" lengthAdjust="spacing" textLength="97.5254" x="308.6699" y="453.8018">return PostsDTO</text><polygon fill="#181818" points="33.7793,486.3555,23.7793,490.3555,33.7793,494.3555,29.7793,490.3555" style="stroke:#181818;stroke-width:1.0;"/><line style="stroke:#181818;stroke-width:1.0;" x1="27.7793" x2="267.21" y1="490.3555" y2="490.3555"/><text fill="#000000" font-family="sans-serif" font-size="13" font-weight="bold" lengthAdjust="spacing" textLength="14.46" x="39.7793" y="485.0928">12</text><text fill="#000000" font-family="sans-serif" font-size="13" lengthAdjust="spacing" textLength="197.9707" x="58.2393" y="485.0928">Display all posts with that keyword</text><!--SRC=[XP91Ry8m38Nl-HLMTzXWwX1ND24DnYIqeI6LQkTGB1eHaYnnj_NVBsuB2AdJhdcV_Pxjt9P4Ban68wUbeUge7mfx70NyhD0KcEwKt7jv5AH88oGPIb-KiBQ1O5l3AzRVrkyI8MH5rbJ7BNg19i8r97b0du0Ca0knjJ-Gl7XhA5sONG8tMkrBSieSX9EULA5ST8yrIqZXoJcj2adAchP-UGqrxXdwBrLW0xmiikYwW-ZIMSraSM0d69-yzXxHzFIPnqpUQjrbdIt6ynvg9PthYFNgdpInHNQDi0V-KAFEetm9cqCwZVFTtqzWKpiCS6Wt2jP0Q7UzbLxmMgOy9eFjEzk6kmuVYAWnml7_P5ZieAPHTe5cTNVAAxffoO6PtYCrw8UYyaAnUkgPfXDmZ9nhsP5VFLBbpKLiOgnNms4Sspvltk_ULA17bgS3iLxrb3RMaJnNnu7xv6uF-R9FRDUOi_IiGlpmDKYjsrZm7US2AYMTRl0B]--></g></svg>