<svg xmlns="http://www.w3.org/2000/svg" xmlns:xlink="http://www.w3.org/1999/xlink" contentStyleType="text/css" height="630px" preserveAspectRatio="none" style="width:1359px;height:630px;background:#FFFFFF;" version="1.1" viewBox="0 0 1359 630" width="1359px" zoomAndPan="magnify"><title>View Favorite Posts</title><defs/><g><text fill="#000000" font-family="sans-serif" font-size="14" font-weight="bold" lengthAdjust="spacing" textLength="132.2686" x="610.7666" y="30.1074">View Favorite Posts</text><rect fill="#FFB6C1" height="578.9375" style="stroke:#181818;stroke-width:0.5;" width="364.3071" x="181.561" y="45.6211"/><text fill="#000000" font-family="sans-serif" font-size="13" font-weight="bold" lengthAdjust="spacing" textLength="62.0928" x="332.6682" y="59.6494">Front-End</text><rect fill="#90EE90" height="578.9375" style="stroke:#181818;stroke-width:0.5;" width="659.9741" x="693.8276" y="45.6211"/><text fill="#000000" font-family="sans-serif" font-size="13" font-weight="bold" lengthAdjust="spacing" textLength="70.8018" x="988.4138" y="59.6494">Back-End 1</text><rect fill="#FFFFFF" height="419.1133" style="stroke:#181818;stroke-width:1.0;" width="10" x="235.0264" y="133.8242"/><rect fill="#FFFFFF" height="356.5313" style="stroke:#181818;stroke-width:1.0;" width="10" x="490.5752" y="165.1152"/><rect fill="#FFFFFF" height="293.9492" style="stroke:#181818;stroke-width:1.0;" width="10" x="746.124" y="196.4063"/><rect fill="#FFFFFF" height="156.4551" style="stroke:#181818;stroke-width:1.0;" width="10" x="1088.4644" y="227.6973"/><rect fill="#FFFFFF" height="31.291" style="stroke:#181818;stroke-width:1.0;" width="10" x="1313.6777" y="258.9883"/><rect fill="#FFFFFF" height="31.291" style="stroke:#181818;stroke-width:1.0;" width="10" x="1313.6777" y="321.5703"/><line style="stroke:#181818;stroke-width:0.5;stroke-dasharray:5.0,5.0;" x1="22" x2="22" y1="100.5332" y2="570.9375"/><line style="stroke:#181818;stroke-width:0.5;stroke-dasharray:5.0,5.0;" x1="239.561" x2="239.561" y1="100.5332" y2="570.9375"/><line style="stroke:#181818;stroke-width:0.5;stroke-dasharray:5.0,5.0;" x1="495.2822" x2="495.2822" y1="100.5332" y2="570.9375"/><line style="stroke:#181818;stroke-width:0.5;stroke-dasharray:5.0,5.0;" x1="750.8276" x2="750.8276" y1="100.5332" y2="570.9375"/><line style="stroke:#181818;stroke-width:0.5;stroke-dasharray:5.0,5.0;" x1="989.7993" x2="989.7993" y1="423.9629" y2="570.9375"/><line style="stroke:#181818;stroke-width:0.5;stroke-dasharray:5.0,5.0;" x1="1093.1714" x2="1093.1714" y1="100.5332" y2="570.9375"/><line style="stroke:#181818;stroke-width:0.5;stroke-dasharray:5.0,5.0;" x1="1318.5537" x2="1318.5537" y1="100.5332" y2="570.9375"/><text fill="#000000" font-family="sans-serif" font-size="14" lengthAdjust="spacing" textLength="29.5586" x="5" y="97.0195">User</text><ellipse cx="22.7793" cy="65.9121" fill="#E2E2F0" rx="12" ry="12" style="stroke:#181818;stroke-width:0.5;"/><line style="stroke:#181818;stroke-width:0.5;" x1="10.7793" x2="34.7793" y1="79.9121" y2="79.9121"/><text fill="#000000" font-family="sans-serif" font-size="14" lengthAdjust="spacing" textLength="29.5586" x="5" y="585.0449">User</text><ellipse cx="22.7793" cy="604.5586" fill="#E2E2F0" rx="12" ry="12" style="stroke:#181818;stroke-width:0.5;"/><line style="stroke:#181818;stroke-width:0.5;" x1="10.7793" x2="34.7793" y1="618.5586" y2="618.5586"/><rect fill="#E2E2F0" height="32.6211" rx="2.5" ry="2.5" style="stroke:#181818;stroke-width:0.5;" width="108.9307" x="185.561" y="66.9121"/><text fill="#000000" font-family="sans-serif" font-size="14" lengthAdjust="spacing" textLength="94.9307" x="192.561" y="89.0195">UI - Application</text><rect fill="#E2E2F0" height="32.6211" rx="2.5" ry="2.5" style="stroke:#181818;stroke-width:0.5;" width="108.9307" x="185.561" y="569.9375"/><text fill="#000000" font-family="sans-serif" font-size="14" lengthAdjust="spacing" textLength="94.9307" x="192.561" y="592.0449">UI - Application</text><rect fill="#E2E2F0" height="32.6211" rx="2.5" ry="2.5" style="stroke:#181818;stroke-width:0.5;" width="92.5859" x="449.2822" y="66.9121"/><text fill="#000000" font-family="sans-serif" font-size="14" lengthAdjust="spacing" textLength="78.5859" x="456.2822" y="89.0195">Post Service</text><rect fill="#E2E2F0" height="32.6211" rx="2.5" ry="2.5" style="stroke:#181818;stroke-width:0.5;" width="92.5859" x="449.2822" y="569.9375"/><text fill="#000000" font-family="sans-serif" font-size="14" lengthAdjust="spacing" textLength="78.5859" x="456.2822" y="592.0449">Post Service</text><rect fill="#E2E2F0" height="32.6211" rx="2.5" ry="2.5" style="stroke:#181818;stroke-width:0.5;" width="106.5928" x="697.8276" y="66.9121"/><text fill="#000000" font-family="sans-serif" font-size="14" lengthAdjust="spacing" textLength="92.5928" x="704.8276" y="89.0195">Post Controller</text><rect fill="#E2E2F0" height="32.6211" rx="2.5" ry="2.5" style="stroke:#181818;stroke-width:0.5;" width="106.5928" x="697.8276" y="569.9375"/><text fill="#000000" font-family="sans-serif" font-size="14" lengthAdjust="spacing" textLength="92.5928" x="704.8276" y="592.0449">Post Controller</text><rect fill="#E2E2F0" height="32.6211" rx="2.5" ry="2.5" style="stroke:#181818;stroke-width:0.5;" width="93.3721" x="943.7993" y="569.9375"/><text fill="#000000" font-family="sans-serif" font-size="14" lengthAdjust="spacing" textLength="79.3721" x="950.7993" y="592.0449">Post Mapper</text><rect fill="#E2E2F0" height="32.6211" rx="2.5" ry="2.5" style="stroke:#181818;stroke-width:0.5;" width="92.5859" x="1047.1714" y="66.9121"/><text fill="#000000" font-family="sans-serif" font-size="14" lengthAdjust="spacing" textLength="78.5859" x="1054.1714" y="89.0195">Post Service</text><rect fill="#E2E2F0" height="32.6211" rx="2.5" ry="2.5" style="stroke:#181818;stroke-width:0.5;" width="92.5859" x="1047.1714" y="569.9375"/><text fill="#000000" font-family="sans-serif" font-size="14" lengthAdjust="spacing" textLength="78.5859" x="1054.1714" y="592.0449">Post Service</text><rect fill="#E2E2F0" height="32.6211" rx="2.5" ry="2.5" style="stroke:#181818;stroke-width:0.5;" width="62.248" x="1287.5537" y="66.9121"/><text fill="#000000" font-family="sans-serif" font-size="14" lengthAdjust="spacing" textLength="48.248" x="1294.5537" y="89.0195">Context</text><rect fill="#E2E2F0" height="32.6211" rx="2.5" ry="2.5" style="stroke:#181818;stroke-width:0.5;" width="62.248" x="1287.5537" y="569.9375"/><text fill="#000000" font-family="sans-serif" font-size="14" lengthAdjust="spacing" textLength="48.248" x="1294.5537" y="592.0449">Context</text><rect fill="#FFFFFF" height="419.1133" style="stroke:#181818;stroke-width:1.0;" width="10" x="235.0264" y="133.8242"/><rect fill="#FFFFFF" height="356.5313" style="stroke:#181818;stroke-width:1.0;" width="10" x="490.5752" y="165.1152"/><rect fill="#FFFFFF" height="293.9492" style="stroke:#181818;stroke-width:1.0;" width="10" x="746.124" y="196.4063"/><rect fill="#FFFFFF" height="156.4551" style="stroke:#181818;stroke-width:1.0;" width="10" x="1088.4644" y="227.6973"/><rect fill="#FFFFFF" height="31.291" style="stroke:#181818;stroke-width:1.0;" width="10" x="1313.6777" y="258.9883"/><rect fill="#FFFFFF" height="31.291" style="stroke:#181818;stroke-width:1.0;" width="10" x="1313.6777" y="321.5703"/><polygon fill="#181818" points="223.0264,129.8242,233.0264,133.8242,223.0264,137.8242,227.0264,133.8242" style="stroke:#181818;stroke-width:1.0;"/><line style="stroke:#181818;stroke-width:1.0;" x1="22.7793" x2="229.0264" y1="133.8242" y2="133.8242"/><text fill="#000000" font-family="sans-serif" font-size="13" font-weight="bold" lengthAdjust="spacing" textLength="7.23" x="29.7793" y="128.5615">1</text><text fill="#000000" font-family="sans-serif" font-size="13" lengthAdjust="spacing" textLength="118.5107" x="41.0093" y="128.5615">Add post to favorites</text><polygon fill="#181818" points="478.5752,161.1152,488.5752,165.1152,478.5752,169.1152,482.5752,165.1152" style="stroke:#181818;stroke-width:1.0;"/><line style="stroke:#181818;stroke-width:1.0;" x1="245.0264" x2="484.5752" y1="165.1152" y2="165.1152"/><text fill="#000000" font-family="sans-serif" font-size="13" font-weight="bold" lengthAdjust="spacing" textLength="7.23" x="252.0264" y="159.8525">2</text><text fill="#000000" font-family="sans-serif" font-size="13" lengthAdjust="spacing" textLength="215.3188" x="263.2563" y="159.8525">putPostAsFavorite(postId, username)</text><polygon fill="#181818" points="734.124,192.4063,744.124,196.4063,734.124,200.4063,738.124,196.4063" style="stroke:#181818;stroke-width:1.0;"/><line style="stroke:#181818;stroke-width:1.0;" x1="500.5752" x2="740.124" y1="196.4063" y2="196.4063"/><text fill="#000000" font-family="sans-serif" font-size="13" font-weight="bold" lengthAdjust="spacing" textLength="7.23" x="507.5752" y="191.1436">3</text><text fill="#000000" font-family="sans-serif" font-size="13" lengthAdjust="spacing" textLength="215.3188" x="518.8052" y="191.1436">putPostAsFavorite(postId, username)</text><polygon fill="#181818" points="1076.4644,223.6973,1086.4644,227.6973,1076.4644,231.6973,1080.4644,227.6973" style="stroke:#181818;stroke-width:1.0;"/><line style="stroke:#181818;stroke-width:1.0;" x1="756.124" x2="1082.4644" y1="227.6973" y2="227.6973"/><text fill="#000000" font-family="sans-serif" font-size="13" font-weight="bold" lengthAdjust="spacing" textLength="7.23" x="763.124" y="222.4346">4</text><text fill="#000000" font-family="sans-serif" font-size="13" lengthAdjust="spacing" textLength="215.3188" x="774.354" y="222.4346">putPostAsFavorite(postId, username)</text><polygon fill="#181818" points="1301.6777,254.9883,1311.6777,258.9883,1301.6777,262.9883,1305.6777,258.9883" style="stroke:#181818;stroke-width:1.0;"/><line style="stroke:#181818;stroke-width:1.0;" x1="1098.4644" x2="1307.6777" y1="258.9883" y2="258.9883"/><text fill="#000000" font-family="sans-serif" font-size="13" font-weight="bold" lengthAdjust="spacing" textLength="7.23" x="1105.4644" y="253.7256">5</text><text fill="#000000" font-family="sans-serif" font-size="13" lengthAdjust="spacing" textLength="88.1563" x="1116.6943" y="253.7256">getPost(postId)</text><polygon fill="#181818" points="1109.4644,286.2793,1099.4644,290.2793,1109.4644,294.2793,1105.4644,290.2793" style="stroke:#181818;stroke-width:1.0;"/><line style="stroke:#181818;stroke-width:1.0;" x1="1103.4644" x2="1317.6777" y1="290.2793" y2="290.2793"/><text fill="#000000" font-family="sans-serif" font-size="13" font-weight="bold" lengthAdjust="spacing" textLength="7.23" x="1115.4644" y="285.0166">6</text><text fill="#000000" font-family="sans-serif" font-size="13" lengthAdjust="spacing" textLength="24.5718" x="1126.6943" y="285.0166">post</text><polygon fill="#181818" points="1301.6777,317.5703,1311.6777,321.5703,1301.6777,325.5703,1305.6777,321.5703" style="stroke:#181818;stroke-width:1.0;"/><line style="stroke:#181818;stroke-width:1.0;" x1="1098.4644" x2="1307.6777" y1="321.5703" y2="321.5703"/><text fill="#000000" font-family="sans-serif" font-size="13" font-weight="bold" lengthAdjust="spacing" textLength="7.23" x="1105.4644" y="316.3076">7</text><text fill="#000000" font-family="sans-serif" font-size="13" lengthAdjust="spacing" textLength="184.9834" x="1116.6943" y="316.3076">post.favoritedBy.add(username)</text><polygon fill="#181818" points="1109.4644,348.8613,1099.4644,352.8613,1109.4644,356.8613,1105.4644,352.8613" style="stroke:#181818;stroke-width:1.0;"/><line style="stroke:#181818;stroke-width:1.0;" x1="1103.4644" x2="1317.6777" y1="352.8613" y2="352.8613"/><text fill="#000000" font-family="sans-serif" font-size="13" font-weight="bold" lengthAdjust="spacing" textLength="7.23" x="1115.4644" y="347.5986">8</text><text fill="#000000" font-family="sans-serif" font-size="13" lengthAdjust="spacing" textLength="24.5718" x="1126.6943" y="347.5986">post</text><polygon fill="#181818" points="767.124,380.1523,757.124,384.1523,767.124,388.1523,763.124,384.1523" style="stroke:#181818;stroke-width:1.0;"/><line style="stroke:#181818;stroke-width:1.0;" x1="761.124" x2="1092.4644" y1="384.1523" y2="384.1523"/><text fill="#000000" font-family="sans-serif" font-size="13" font-weight="bold" lengthAdjust="spacing" textLength="7.23" x="773.124" y="378.8896">9</text><text fill="#000000" font-family="sans-serif" font-size="13" lengthAdjust="spacing" textLength="24.5718" x="784.354" y="378.8896">post</text><polygon fill="#181818" points="931.7993,411.4434,941.7993,415.4434,931.7993,419.4434,935.7993,415.4434" style="stroke:#181818;stroke-width:1.0;"/><line style="stroke:#181818;stroke-width:1.0;" x1="756.124" x2="937.7993" y1="415.4434" y2="415.4434"/><text fill="#000000" font-family="sans-serif" font-size="13" font-weight="bold" lengthAdjust="spacing" textLength="14.46" x="763.124" y="410.1807">10</text><text fill="#000000" font-family="sans-serif" font-size="13" lengthAdjust="spacing" textLength="145.2153" x="781.584" y="410.1807">PostMapper.toDTO(post)</text><rect fill="#E2E2F0" height="32.6211" rx="2.5" ry="2.5" style="stroke:#181818;stroke-width:0.5;" width="93.3721" x="943.7993" y="392.1523"/><text fill="#000000" font-family="sans-serif" font-size="14" lengthAdjust="spacing" textLength="79.3721" x="950.7993" y="414.2598">Post Mapper</text><polygon fill="#181818" points="767.124,455.0645,757.124,459.0645,767.124,463.0645,763.124,459.0645" style="stroke:#181818;stroke-width:1.0;"/><line style="stroke:#181818;stroke-width:1.0;" x1="761.124" x2="989.4854" y1="459.0645" y2="459.0645"/><text fill="#000000" font-family="sans-serif" font-size="13" font-weight="bold" lengthAdjust="spacing" textLength="14.46" x="773.124" y="453.8018">11</text><text fill="#000000" font-family="sans-serif" font-size="13" lengthAdjust="spacing" textLength="94.6309" x="791.584" y="453.8018">return(postDTO)</text><polygon fill="#181818" points="511.5752,486.3555,501.5752,490.3555,511.5752,494.3555,507.5752,490.3555" style="stroke:#181818;stroke-width:1.0;"/><line style="stroke:#181818;stroke-width:1.0;" x1="505.5752" x2="750.124" y1="490.3555" y2="490.3555"/><text fill="#000000" font-family="sans-serif" font-size="13" font-weight="bold" lengthAdjust="spacing" textLength="14.46" x="517.5752" y="485.0928">12</text><text fill="#000000" font-family="sans-serif" font-size="13" lengthAdjust="spacing" textLength="154.6035" x="536.0352" y="485.0928">return(postDTO, message)</text><polygon fill="#181818" points="256.0264,517.6465,246.0264,521.6465,256.0264,525.6465,252.0264,521.6465" style="stroke:#181818;stroke-width:1.0;"/><line style="stroke:#181818;stroke-width:1.0;" x1="250.0264" x2="494.5752" y1="521.6465" y2="521.6465"/><text fill="#000000" font-family="sans-serif" font-size="13" font-weight="bold" lengthAdjust="spacing" textLength="14.46" x="262.0264" y="516.3838">13</text><text fill="#000000" font-family="sans-serif" font-size="13" lengthAdjust="spacing" textLength="95.3672" x="280.4863" y="516.3838">return(message)</text><polygon fill="#181818" points="33.7793,548.9375,23.7793,552.9375,33.7793,556.9375,29.7793,552.9375" style="stroke:#181818;stroke-width:1.0;"/><line style="stroke:#181818;stroke-width:1.0;" x1="27.7793" x2="239.0264" y1="552.9375" y2="552.9375"/><text fill="#000000" font-family="sans-serif" font-size="13" font-weight="bold" lengthAdjust="spacing" textLength="14.46" x="39.7793" y="547.6748">14</text><text fill="#000000" font-family="sans-serif" font-size="13" lengthAdjust="spacing" textLength="169.7871" x="58.2393" y="547.6748">Displays successful message</text><!--SRC=[bLDDJ-Cm4BtxLuoo1oYGLbnxG6fBA_LGRQLkk9ju21Q9xRN7BFttwt4JMWJYuphllNdpdfEpHo8NffE9QwMXsBNZsdQJW7yZcXfBfMNZPIT8KujGt6dy1olvRBqcXAqD50eXP2HhOdUFNg19p3qKLK1VW0nG2N5lNw1OUMkeN1fLmAzMDu_aj7aIJdhIjNR9EcdMKCBCkLRNahGr1_twBOazOOV-MTUO2QlbBhagI2wzrLpMJ-m4ruDNun7D1tiMwIPlsxQ_TRwyNdp0saZdUiPsyyKrQSNkBOKzy8KokaZmyTWAofkKx_9o2ZEbmF4kil3Grni45tB30PdY8h7RB0prdxDWhQuWfgwDx70a4fKLdEEx4kRscjqFDDc7ux2cmQpfcIF1ys5dMKvpidSY7ew7h6g-7qkbpeyUd-xWeq-7ES5sSt4npT_auS76P6___Cv7ZSHsSwhpID6R32NAiOJKttlu2ZeCGJR7Vglr2UiLFBnMnT2j3kbtsWS8iQuJ_X3ROOdu3m00]--></g></svg>