<svg xmlns="http://www.w3.org/2000/svg" xmlns:xlink="http://www.w3.org/1999/xlink" contentStyleType="text/css" height="567px" preserveAspectRatio="none" style="width:1327px;height:567px;background:#FFFFFF;" version="1.1" viewBox="0 0 1327 567" width="1327px" zoomAndPan="magnify"><title>View Favorite Posts</title><defs/><g><text fill="#000000" font-family="sans-serif" font-size="14" font-weight="bold" lengthAdjust="spacing" textLength="132.2686" x="594.8308" y="30.1074">View Favorite Posts</text><rect fill="#FFB6C1" height="516.3555" style="stroke:#181818;stroke-width:0.5;" width="355.6172" x="141.8247" y="45.6211"/><text fill="#000000" font-family="sans-serif" font-size="13" font-weight="bold" lengthAdjust="spacing" textLength="62.0928" x="288.5869" y="59.6494">Front-End</text><rect fill="#90EE90" height="516.3555" style="stroke:#181818;stroke-width:0.5;" width="685.2188" x="636.7114" y="45.6211"/><text fill="#000000" font-family="sans-serif" font-size="13" font-weight="bold" lengthAdjust="spacing" textLength="70.8018" x="943.9199" y="59.6494">Back-End 1</text><rect fill="#FFFFFF" height="356.5313" style="stroke:#181818;stroke-width:1.0;" width="10" x="195.29" y="133.8242"/><rect fill="#FFFFFF" height="293.9492" style="stroke:#181818;stroke-width:1.0;" width="10" x="442.1489" y="165.1152"/><rect fill="#FFFFFF" height="231.3672" style="stroke:#181818;stroke-width:1.0;" width="10" x="689.0078" y="196.4063"/><rect fill="#FFFFFF" height="93.873" style="stroke:#181818;stroke-width:1.0;" width="10" x="1034.9473" y="227.6973"/><rect fill="#FFFFFF" height="31.291" style="stroke:#181818;stroke-width:1.0;" width="10" x="1281.8062" y="258.9883"/><line style="stroke:#181818;stroke-width:0.5;stroke-dasharray:5.0,5.0;" x1="22" x2="22" y1="100.5332" y2="508.3555"/><line style="stroke:#181818;stroke-width:0.5;stroke-dasharray:5.0,5.0;" x1="199.8247" x2="199.8247" y1="100.5332" y2="508.3555"/><line style="stroke:#181818;stroke-width:0.5;stroke-dasharray:5.0,5.0;" x1="446.856" x2="446.856" y1="100.5332" y2="508.3555"/><line style="stroke:#181818;stroke-width:0.5;stroke-dasharray:5.0,5.0;" x1="693.7114" x2="693.7114" y1="100.5332" y2="508.3555"/><line style="stroke:#181818;stroke-width:0.5;stroke-dasharray:5.0,5.0;" x1="936.2822" x2="936.2822" y1="361.3809" y2="508.3555"/><line style="stroke:#181818;stroke-width:0.5;stroke-dasharray:5.0,5.0;" x1="1039.6543" x2="1039.6543" y1="100.5332" y2="508.3555"/><line style="stroke:#181818;stroke-width:0.5;stroke-dasharray:5.0,5.0;" x1="1286.6821" x2="1286.6821" y1="100.5332" y2="508.3555"/><text fill="#000000" font-family="sans-serif" font-size="14" lengthAdjust="spacing" textLength="29.5586" x="5" y="97.0195">User</text><ellipse cx="22.7793" cy="65.9121" fill="#E2E2F0" rx="12" ry="12" style="stroke:#181818;stroke-width:0.5;"/><line style="stroke:#181818;stroke-width:0.5;" x1="10.7793" x2="34.7793" y1="79.9121" y2="79.9121"/><text fill="#000000" font-family="sans-serif" font-size="14" lengthAdjust="spacing" textLength="29.5586" x="5" y="522.4629">User</text><ellipse cx="22.7793" cy="541.9766" fill="#E2E2F0" rx="12" ry="12" style="stroke:#181818;stroke-width:0.5;"/><line style="stroke:#181818;stroke-width:0.5;" x1="10.7793" x2="34.7793" y1="555.9766" y2="555.9766"/><rect fill="#E2E2F0" height="32.6211" rx="2.5" ry="2.5" style="stroke:#181818;stroke-width:0.5;" width="108.9307" x="145.8247" y="66.9121"/><text fill="#000000" font-family="sans-serif" font-size="14" lengthAdjust="spacing" textLength="94.9307" x="152.8247" y="89.0195">UI - Application</text><rect fill="#E2E2F0" height="32.6211" rx="2.5" ry="2.5" style="stroke:#181818;stroke-width:0.5;" width="108.9307" x="145.8247" y="507.3555"/><text fill="#000000" font-family="sans-serif" font-size="14" lengthAdjust="spacing" textLength="94.9307" x="152.8247" y="529.4629">UI - Application</text><rect fill="#E2E2F0" height="32.6211" rx="2.5" ry="2.5" style="stroke:#181818;stroke-width:0.5;" width="92.5859" x="400.856" y="66.9121"/><text fill="#000000" font-family="sans-serif" font-size="14" lengthAdjust="spacing" textLength="78.5859" x="407.856" y="89.0195">Post Service</text><rect fill="#E2E2F0" height="32.6211" rx="2.5" ry="2.5" style="stroke:#181818;stroke-width:0.5;" width="92.5859" x="400.856" y="507.3555"/><text fill="#000000" font-family="sans-serif" font-size="14" lengthAdjust="spacing" textLength="78.5859" x="407.856" y="529.4629">Post Service</text><rect fill="#E2E2F0" height="32.6211" rx="2.5" ry="2.5" style="stroke:#181818;stroke-width:0.5;" width="106.5928" x="640.7114" y="66.9121"/><text fill="#000000" font-family="sans-serif" font-size="14" lengthAdjust="spacing" textLength="92.5928" x="647.7114" y="89.0195">Post Controller</text><rect fill="#E2E2F0" height="32.6211" rx="2.5" ry="2.5" style="stroke:#181818;stroke-width:0.5;" width="106.5928" x="640.7114" y="507.3555"/><text fill="#000000" font-family="sans-serif" font-size="14" lengthAdjust="spacing" textLength="92.5928" x="647.7114" y="529.4629">Post Controller</text><rect fill="#E2E2F0" height="32.6211" rx="2.5" ry="2.5" style="stroke:#181818;stroke-width:0.5;" width="93.3721" x="890.2822" y="507.3555"/><text fill="#000000" font-family="sans-serif" font-size="14" lengthAdjust="spacing" textLength="79.3721" x="897.2822" y="529.4629">Post Mapper</text><rect fill="#E2E2F0" height="32.6211" rx="2.5" ry="2.5" style="stroke:#181818;stroke-width:0.5;" width="92.5859" x="993.6543" y="66.9121"/><text fill="#000000" font-family="sans-serif" font-size="14" lengthAdjust="spacing" textLength="78.5859" x="1000.6543" y="89.0195">Post Service</text><rect fill="#E2E2F0" height="32.6211" rx="2.5" ry="2.5" style="stroke:#181818;stroke-width:0.5;" width="92.5859" x="993.6543" y="507.3555"/><text fill="#000000" font-family="sans-serif" font-size="14" lengthAdjust="spacing" textLength="78.5859" x="1000.6543" y="529.4629">Post Service</text><rect fill="#E2E2F0" height="32.6211" rx="2.5" ry="2.5" style="stroke:#181818;stroke-width:0.5;" width="62.248" x="1255.6821" y="66.9121"/><text fill="#000000" font-family="sans-serif" font-size="14" lengthAdjust="spacing" textLength="48.248" x="1262.6821" y="89.0195">Context</text><rect fill="#E2E2F0" height="32.6211" rx="2.5" ry="2.5" style="stroke:#181818;stroke-width:0.5;" width="62.248" x="1255.6821" y="507.3555"/><text fill="#000000" font-family="sans-serif" font-size="14" lengthAdjust="spacing" textLength="48.248" x="1262.6821" y="529.4629">Context</text><rect fill="#FFFFFF" height="356.5313" style="stroke:#181818;stroke-width:1.0;" width="10" x="195.29" y="133.8242"/><rect fill="#FFFFFF" height="293.9492" style="stroke:#181818;stroke-width:1.0;" width="10" x="442.1489" y="165.1152"/><rect fill="#FFFFFF" height="231.3672" style="stroke:#181818;stroke-width:1.0;" width="10" x="689.0078" y="196.4063"/><rect fill="#FFFFFF" height="93.873" style="stroke:#181818;stroke-width:1.0;" width="10" x="1034.9473" y="227.6973"/><rect fill="#FFFFFF" height="31.291" style="stroke:#181818;stroke-width:1.0;" width="10" x="1281.8062" y="258.9883"/><polygon fill="#181818" points="183.29,129.8242,193.29,133.8242,183.29,137.8242,187.29,133.8242" style="stroke:#181818;stroke-width:1.0;"/><line style="stroke:#181818;stroke-width:1.0;" x1="22.7793" x2="189.29" y1="133.8242" y2="133.8242"/><text fill="#000000" font-family="sans-serif" font-size="13" font-weight="bold" lengthAdjust="spacing" textLength="7.23" x="29.7793" y="128.5615">1</text><text fill="#000000" font-family="sans-serif" font-size="13" lengthAdjust="spacing" textLength="127.8799" x="41.0093" y="128.5615">Asks for favorite posts</text><polygon fill="#181818" points="430.1489,161.1152,440.1489,165.1152,430.1489,169.1152,434.1489,165.1152" style="stroke:#181818;stroke-width:1.0;"/><line style="stroke:#181818;stroke-width:1.0;" x1="205.29" x2="436.1489" y1="165.1152" y2="165.1152"/><text fill="#000000" font-family="sans-serif" font-size="13" font-weight="bold" lengthAdjust="spacing" textLength="7.23" x="212.29" y="159.8525">2</text><text fill="#000000" font-family="sans-serif" font-size="13" lengthAdjust="spacing" textLength="206.6289" x="223.52" y="159.8525">getFavoritePostsByUser(username)</text><polygon fill="#181818" points="677.0078,192.4063,687.0078,196.4063,677.0078,200.4063,681.0078,196.4063" style="stroke:#181818;stroke-width:1.0;"/><line style="stroke:#181818;stroke-width:1.0;" x1="452.1489" x2="683.0078" y1="196.4063" y2="196.4063"/><text fill="#000000" font-family="sans-serif" font-size="13" font-weight="bold" lengthAdjust="spacing" textLength="7.23" x="459.1489" y="191.1436">3</text><text fill="#000000" font-family="sans-serif" font-size="13" lengthAdjust="spacing" textLength="206.6289" x="470.3789" y="191.1436">getFavoritePostsByUser(username)</text><polygon fill="#181818" points="1022.9473,223.6973,1032.9473,227.6973,1022.9473,231.6973,1026.9473,227.6973" style="stroke:#181818;stroke-width:1.0;"/><line style="stroke:#181818;stroke-width:1.0;" x1="699.0078" x2="1028.9473" y1="227.6973" y2="227.6973"/><text fill="#000000" font-family="sans-serif" font-size="13" font-weight="bold" lengthAdjust="spacing" textLength="7.23" x="706.0078" y="222.4346">4</text><text fill="#000000" font-family="sans-serif" font-size="13" lengthAdjust="spacing" textLength="206.6289" x="717.2378" y="222.4346">getFavoritePostsByUser(username)</text><polygon fill="#181818" points="1269.8062,254.9883,1279.8062,258.9883,1269.8062,262.9883,1273.8062,258.9883" style="stroke:#181818;stroke-width:1.0;"/><line style="stroke:#181818;stroke-width:1.0;" x1="1044.9473" x2="1275.8062" y1="258.9883" y2="258.9883"/><text fill="#000000" font-family="sans-serif" font-size="13" font-weight="bold" lengthAdjust="spacing" textLength="7.23" x="1051.9473" y="253.7256">5</text><text fill="#000000" font-family="sans-serif" font-size="13" lengthAdjust="spacing" textLength="206.6289" x="1063.1772" y="253.7256">getFavoritePostsByUser(username)</text><polygon fill="#181818" points="1055.9473,286.2793,1045.9473,290.2793,1055.9473,294.2793,1051.9473,290.2793" style="stroke:#181818;stroke-width:1.0;"/><line style="stroke:#181818;stroke-width:1.0;" x1="1049.9473" x2="1285.8062" y1="290.2793" y2="290.2793"/><text fill="#000000" font-family="sans-serif" font-size="13" font-weight="bold" lengthAdjust="spacing" textLength="7.23" x="1061.9473" y="285.0166">6</text><text fill="#000000" font-family="sans-serif" font-size="13" lengthAdjust="spacing" textLength="96.1099" x="1073.1772" y="285.0166">List&lt;Post&gt; posts</text><polygon fill="#181818" points="710.0078,317.5703,700.0078,321.5703,710.0078,325.5703,706.0078,321.5703" style="stroke:#181818;stroke-width:1.0;"/><line style="stroke:#181818;stroke-width:1.0;" x1="704.0078" x2="1038.9473" y1="321.5703" y2="321.5703"/><text fill="#000000" font-family="sans-serif" font-size="13" font-weight="bold" lengthAdjust="spacing" textLength="7.23" x="716.0078" y="316.3076">7</text><text fill="#000000" font-family="sans-serif" font-size="13" lengthAdjust="spacing" textLength="96.1099" x="727.2378" y="316.3076">List&lt;Post&gt; posts</text><polygon fill="#181818" points="878.2822,348.8613,888.2822,352.8613,878.2822,356.8613,882.2822,352.8613" style="stroke:#181818;stroke-width:1.0;"/><line style="stroke:#181818;stroke-width:1.0;" x1="699.0078" x2="884.2822" y1="352.8613" y2="352.8613"/><text fill="#000000" font-family="sans-serif" font-size="13" font-weight="bold" lengthAdjust="spacing" textLength="7.23" x="706.0078" y="347.5986">8</text><text fill="#000000" font-family="sans-serif" font-size="13" lengthAdjust="spacing" textLength="156.0444" x="717.2378" y="347.5986">PostMapper.ToDTO(posts)</text><rect fill="#E2E2F0" height="32.6211" rx="2.5" ry="2.5" style="stroke:#181818;stroke-width:0.5;" width="93.3721" x="890.2822" y="329.5703"/><text fill="#000000" font-family="sans-serif" font-size="14" lengthAdjust="spacing" textLength="79.3721" x="897.2822" y="351.6777">Post Mapper</text><polygon fill="#181818" points="710.0078,392.4824,700.0078,396.4824,710.0078,400.4824,706.0078,396.4824" style="stroke:#181818;stroke-width:1.0;"/><line style="stroke:#181818;stroke-width:1.0;" x1="704.0078" x2="935.9683" y1="396.4824" y2="396.4824"/><text fill="#000000" font-family="sans-serif" font-size="13" font-weight="bold" lengthAdjust="spacing" textLength="7.23" x="716.0078" y="391.2197">9</text><text fill="#000000" font-family="sans-serif" font-size="13" lengthAdjust="spacing" textLength="166.1689" x="727.2378" y="391.2197">return(List&lt;PostDTO&gt; posts)</text><polygon fill="#181818" points="463.1489,423.7734,453.1489,427.7734,463.1489,431.7734,459.1489,427.7734" style="stroke:#181818;stroke-width:1.0;"/><line style="stroke:#181818;stroke-width:1.0;" x1="457.1489" x2="693.0078" y1="427.7734" y2="427.7734"/><text fill="#000000" font-family="sans-serif" font-size="13" font-weight="bold" lengthAdjust="spacing" textLength="14.46" x="469.1489" y="422.5107">10</text><text fill="#000000" font-family="sans-serif" font-size="13" lengthAdjust="spacing" textLength="31.0718" x="487.6089" y="422.5107">posts</text><polygon fill="#181818" points="216.29,455.0645,206.29,459.0645,216.29,463.0645,212.29,459.0645" style="stroke:#181818;stroke-width:1.0;"/><line style="stroke:#181818;stroke-width:1.0;" x1="210.29" x2="446.1489" y1="459.0645" y2="459.0645"/><text fill="#000000" font-family="sans-serif" font-size="13" font-weight="bold" lengthAdjust="spacing" textLength="14.46" x="222.29" y="453.8018">11</text><text fill="#000000" font-family="sans-serif" font-size="13" lengthAdjust="spacing" textLength="31.0718" x="240.75" y="453.8018">posts</text><polygon fill="#181818" points="33.7793,486.3555,23.7793,490.3555,33.7793,494.3555,29.7793,490.3555" style="stroke:#181818;stroke-width:1.0;"/><line style="stroke:#181818;stroke-width:1.0;" x1="27.7793" x2="199.29" y1="490.3555" y2="490.3555"/><text fill="#000000" font-family="sans-serif" font-size="13" font-weight="bold" lengthAdjust="spacing" textLength="14.46" x="39.7793" y="485.0928">12</text><text fill="#000000" font-family="sans-serif" font-size="13" lengthAdjust="spacing" textLength="130.0508" x="58.2393" y="485.0928">Displays favorite posts</text><!--SRC=[ZPF9Ri8m48RlVefHUYYB0kAAAYHM2QbH8q5wDs485edjsWw5jwyd9ALKLEMIW_FD_8kJvxrpsWxxVPrpwSeYxwMgw5lyA56c66u5pmmlc1CkHmZU1Nx2WX-L4GuXLjRPW35UEYNBOeE6eVJa6OB4eWc0MqWOswWJ10kZf0ldSXl0KowolTD27fZcnebKQ2_jPvOGmbZhNAJS2IKlyyjRY3HXXUOeKgo0nNpbLRVWLMgf2KyFf0I3HYipYFBEdgdtP5IUrrudyy7q3XLnhMiYZlvnurUiRX7Im9EhtaxzwwlP1CAHpzVj3c5i3nPsoi2kwLPJjumg6L54WZ9qJVLLyvCpjTmg_KFo0jlCSuHJZ8Tu0kk1rQC3bGBbU6Y0m4OX38VmAgnx8NHK1smsafM_WCfZ77Kwm-gBkrn7RwrcwxTM1RLP7FrSOj2LHhQ-TtcmNdVDxBiYz29I5vSihqUNvXCwc0dhVuwp_NqvNm00]--></g></svg>