<svg xmlns="http://www.w3.org/2000/svg" xmlns:xlink="http://www.w3.org/1999/xlink" contentStyleType="text/css" height="780px" preserveAspectRatio="none" style="width:1438px;height:780px;background:#FFFFFF;" version="1.1" viewBox="0 0 1438 780" width="1438px" zoomAndPan="magnify"><title>User Activity Statistics</title><defs/><g><text fill="#000000" font-family="sans-serif" font-size="14" font-weight="bold" lengthAdjust="spacing" textLength="151.7305" x="640.5073" y="30.1074">User Activity Statistics</text><rect fill="#FFB6C1" height="728.7617" style="stroke:#181818;stroke-width:0.5;" width="305.7705" x="107.9302" y="45.6211"/><text fill="#000000" font-family="sans-serif" font-size="13" font-weight="bold" lengthAdjust="spacing" textLength="62.0928" x="229.769" y="59.6494">Front-End</text><rect fill="#90EE90" height="728.7617" style="stroke:#181818;stroke-width:0.5;" width="975.1387" x="457.6064" y="45.6211"/><text fill="#000000" font-family="sans-serif" font-size="13" font-weight="bold" lengthAdjust="spacing" textLength="70.8018" x="909.7749" y="59.6494">Back-End 1</text><rect fill="#FFFFFF" height="568.9375" style="stroke:#181818;stroke-width:1.0;" width="10" x="161.3955" y="133.8242"/><rect fill="#FFFFFF" height="506.3555" style="stroke:#181818;stroke-width:1.0;" width="10" x="343.2354" y="165.1152"/><rect fill="#FFFFFF" height="443.7734" style="stroke:#181818;stroke-width:1.0;" width="10" x="525.0752" y="196.4063"/><rect fill="#FFFFFF" height="181.1152" style="stroke:#181818;stroke-width:1.0;" width="10" x="1392.6211" y="271.3184"/><line style="stroke:#181818;stroke-width:0.5;stroke-dasharray:5.0,5.0;" x1="22" x2="22" y1="100.5332" y2="720.7617"/><line style="stroke:#181818;stroke-width:0.5;stroke-dasharray:5.0,5.0;" x1="165.9302" x2="165.9302" y1="100.5332" y2="720.7617"/><line style="stroke:#181818;stroke-width:0.5;stroke-dasharray:5.0,5.0;" x1="347.77" x2="347.77" y1="100.5332" y2="720.7617"/><line style="stroke:#181818;stroke-width:0.5;stroke-dasharray:5.0,5.0;" x1="529.6064" x2="529.6064" y1="100.5332" y2="720.7617"/><line style="stroke:#181818;stroke-width:0.5;stroke-dasharray:5.0,5.0;" x1="856.8877" x2="856.8877" y1="236.2168" y2="720.7617"/><line style="stroke:#181818;stroke-width:0.5;stroke-dasharray:5.0,5.0;" x1="963.4736" x2="963.4736" y1="311.1289" y2="720.7617"/><line style="stroke:#181818;stroke-width:0.5;stroke-dasharray:5.0,5.0;" x1="1085.8457" x2="1085.8457" y1="386.041" y2="720.7617"/><line style="stroke:#181818;stroke-width:0.5;stroke-dasharray:5.0,5.0;" x1="1397.4971" x2="1397.4971" y1="100.5332" y2="720.7617"/><text fill="#000000" font-family="sans-serif" font-size="14" lengthAdjust="spacing" textLength="29.5586" x="5" y="97.0195">User</text><ellipse cx="22.7793" cy="65.9121" fill="#E2E2F0" rx="12" ry="12" style="stroke:#181818;stroke-width:0.5;"/><line style="stroke:#181818;stroke-width:0.5;" x1="10.7793" x2="34.7793" y1="79.9121" y2="79.9121"/><text fill="#000000" font-family="sans-serif" font-size="14" lengthAdjust="spacing" textLength="29.5586" x="5" y="734.8691">User</text><ellipse cx="22.7793" cy="754.3828" fill="#E2E2F0" rx="12" ry="12" style="stroke:#181818;stroke-width:0.5;"/><line style="stroke:#181818;stroke-width:0.5;" x1="10.7793" x2="34.7793" y1="768.3828" y2="768.3828"/><rect fill="#E2E2F0" height="32.6211" rx="2.5" ry="2.5" style="stroke:#181818;stroke-width:0.5;" width="108.9307" x="111.9302" y="66.9121"/><text fill="#000000" font-family="sans-serif" font-size="14" lengthAdjust="spacing" textLength="94.9307" x="118.9302" y="89.0195">UI - Application</text><rect fill="#E2E2F0" height="32.6211" rx="2.5" ry="2.5" style="stroke:#181818;stroke-width:0.5;" width="108.9307" x="111.9302" y="719.7617"/><text fill="#000000" font-family="sans-serif" font-size="14" lengthAdjust="spacing" textLength="94.9307" x="118.9302" y="741.8691">UI - Application</text><rect fill="#E2E2F0" height="32.6211" rx="2.5" ry="2.5" style="stroke:#181818;stroke-width:0.5;" width="122.9307" x="286.77" y="66.9121"/><text fill="#000000" font-family="sans-serif" font-size="14" lengthAdjust="spacing" textLength="108.9307" x="293.77" y="89.0195">Greenitor Service</text><rect fill="#E2E2F0" height="32.6211" rx="2.5" ry="2.5" style="stroke:#181818;stroke-width:0.5;" width="122.9307" x="286.77" y="719.7617"/><text fill="#000000" font-family="sans-serif" font-size="14" lengthAdjust="spacing" textLength="108.9307" x="293.77" y="741.8691">Greenitor Service</text><rect fill="#E2E2F0" height="32.6211" rx="2.5" ry="2.5" style="stroke:#181818;stroke-width:0.5;" width="136.9375" x="461.6064" y="66.9121"/><text fill="#000000" font-family="sans-serif" font-size="14" lengthAdjust="spacing" textLength="122.9375" x="468.6064" y="89.0195">Greenitor Controller</text><rect fill="#E2E2F0" height="32.6211" rx="2.5" ry="2.5" style="stroke:#181818;stroke-width:0.5;" width="136.9375" x="461.6064" y="719.7617"/><text fill="#000000" font-family="sans-serif" font-size="14" lengthAdjust="spacing" textLength="122.9375" x="468.6064" y="741.8691">Greenitor Controller</text><rect fill="#E2E2F0" height="32.6211" rx="2.5" ry="2.5" style="stroke:#181818;stroke-width:0.5;" width="92.5859" x="810.8877" y="719.7617"/><text fill="#000000" font-family="sans-serif" font-size="14" lengthAdjust="spacing" textLength="78.5859" x="817.8877" y="741.8691">Post Service</text><rect fill="#E2E2F0" height="32.6211" rx="2.5" ry="2.5" style="stroke:#181818;stroke-width:0.5;" width="100.3721" x="913.4736" y="719.7617"/><text fill="#000000" font-family="sans-serif" font-size="14" lengthAdjust="spacing" textLength="86.3721" x="920.4736" y="741.8691">Event Service</text><rect fill="#E2E2F0" height="32.6211" rx="2.5" ry="2.5" style="stroke:#181818;stroke-width:0.5;" width="125.2549" x="1023.8457" y="719.7617"/><text fill="#000000" font-family="sans-serif" font-size="14" lengthAdjust="spacing" textLength="111.2549" x="1030.8457" y="741.8691">Comment Service</text><rect fill="#E2E2F0" height="32.6211" rx="2.5" ry="2.5" style="stroke:#181818;stroke-width:0.5;" width="62.248" x="1366.4971" y="66.9121"/><text fill="#000000" font-family="sans-serif" font-size="14" lengthAdjust="spacing" textLength="48.248" x="1373.4971" y="89.0195">Context</text><rect fill="#E2E2F0" height="32.6211" rx="2.5" ry="2.5" style="stroke:#181818;stroke-width:0.5;" width="62.248" x="1366.4971" y="719.7617"/><text fill="#000000" font-family="sans-serif" font-size="14" lengthAdjust="spacing" textLength="48.248" x="1373.4971" y="741.8691">Context</text><rect fill="#FFFFFF" height="568.9375" style="stroke:#181818;stroke-width:1.0;" width="10" x="161.3955" y="133.8242"/><rect fill="#FFFFFF" height="506.3555" style="stroke:#181818;stroke-width:1.0;" width="10" x="343.2354" y="165.1152"/><rect fill="#FFFFFF" height="443.7734" style="stroke:#181818;stroke-width:1.0;" width="10" x="525.0752" y="196.4063"/><rect fill="#FFFFFF" height="181.1152" style="stroke:#181818;stroke-width:1.0;" width="10" x="1392.6211" y="271.3184"/><polygon fill="#181818" points="149.3955,129.8242,159.3955,133.8242,149.3955,137.8242,153.3955,133.8242" style="stroke:#181818;stroke-width:1.0;"/><line style="stroke:#181818;stroke-width:1.0;" x1="22.7793" x2="155.3955" y1="133.8242" y2="133.8242"/><text fill="#000000" font-family="sans-serif" font-size="13" font-weight="bold" lengthAdjust="spacing" textLength="7.23" x="29.7793" y="128.5615">1</text><text fill="#000000" font-family="sans-serif" font-size="13" lengthAdjust="spacing" textLength="108.3862" x="41.0093" y="128.5615">Request user stats</text><polygon fill="#181818" points="331.2354,161.1152,341.2354,165.1152,331.2354,169.1152,335.2354,165.1152" style="stroke:#181818;stroke-width:1.0;"/><line style="stroke:#181818;stroke-width:1.0;" x1="171.3955" x2="337.2354" y1="165.1152" y2="165.1152"/><text fill="#000000" font-family="sans-serif" font-size="13" font-weight="bold" lengthAdjust="spacing" textLength="7.23" x="178.3955" y="159.8525">2</text><text fill="#000000" font-family="sans-serif" font-size="13" lengthAdjust="spacing" textLength="141.6099" x="189.6255" y="159.8525">getUserStats(username)</text><polygon fill="#181818" points="513.0752,192.4063,523.0752,196.4063,513.0752,200.4063,517.0752,196.4063" style="stroke:#181818;stroke-width:1.0;"/><line style="stroke:#181818;stroke-width:1.0;" x1="353.2354" x2="519.0752" y1="196.4063" y2="196.4063"/><text fill="#000000" font-family="sans-serif" font-size="13" font-weight="bold" lengthAdjust="spacing" textLength="7.23" x="360.2354" y="191.1436">3</text><text fill="#000000" font-family="sans-serif" font-size="13" lengthAdjust="spacing" textLength="141.6099" x="371.4653" y="191.1436">getUserStats(username)</text><polygon fill="#181818" points="798.8877,223.6973,808.8877,227.6973,798.8877,231.6973,802.8877,227.6973" style="stroke:#181818;stroke-width:1.0;"/><line style="stroke:#181818;stroke-width:1.0;" x1="535.0752" x2="804.8877" y1="227.6973" y2="227.6973"/><text fill="#000000" font-family="sans-serif" font-size="13" font-weight="bold" lengthAdjust="spacing" textLength="7.23" x="542.0752" y="222.4346">4</text><text fill="#000000" font-family="sans-serif" font-size="13" lengthAdjust="spacing" textLength="240.5825" x="553.3052" y="222.4346">GetPostStatisticsByUsername(username)</text><rect fill="#E2E2F0" height="32.6211" rx="2.5" ry="2.5" style="stroke:#181818;stroke-width:0.5;" width="92.5859" x="810.8877" y="204.4063"/><text fill="#000000" font-family="sans-serif" font-size="14" lengthAdjust="spacing" textLength="78.5859" x="817.8877" y="226.5137">Post Service</text><polygon fill="#181818" points="1380.6211,267.3184,1390.6211,271.3184,1380.6211,275.3184,1384.6211,271.3184" style="stroke:#181818;stroke-width:1.0;"/><line style="stroke:#181818;stroke-width:1.0;" x1="857.1807" x2="1386.6211" y1="271.3184" y2="271.3184"/><text fill="#000000" font-family="sans-serif" font-size="13" font-weight="bold" lengthAdjust="spacing" textLength="7.23" x="864.1807" y="266.0557">5</text><text fill="#000000" font-family="sans-serif" font-size="13" lengthAdjust="spacing" textLength="240.5825" x="875.4106" y="266.0557">GetPostStatisticsByUsername(username)</text><polygon fill="#181818" points="901.4736,298.6094,911.4736,302.6094,901.4736,306.6094,905.4736,302.6094" style="stroke:#181818;stroke-width:1.0;"/><line style="stroke:#181818;stroke-width:1.0;" x1="535.0752" x2="907.4736" y1="302.6094" y2="302.6094"/><text fill="#000000" font-family="sans-serif" font-size="13" font-weight="bold" lengthAdjust="spacing" textLength="7.23" x="542.0752" y="297.3467">6</text><text fill="#000000" font-family="sans-serif" font-size="13" lengthAdjust="spacing" textLength="247.8125" x="553.3052" y="297.3467">GetEventStatisticsByUsername(username)</text><rect fill="#E2E2F0" height="32.6211" rx="2.5" ry="2.5" style="stroke:#181818;stroke-width:0.5;" width="100.3721" x="913.4736" y="279.3184"/><text fill="#000000" font-family="sans-serif" font-size="14" lengthAdjust="spacing" textLength="86.3721" x="920.4736" y="301.4258">Event Service</text><polygon fill="#181818" points="1380.6211,342.2305,1390.6211,346.2305,1380.6211,350.2305,1384.6211,346.2305" style="stroke:#181818;stroke-width:1.0;"/><line style="stroke:#181818;stroke-width:1.0;" x1="963.6597" x2="1386.6211" y1="346.2305" y2="346.2305"/><text fill="#000000" font-family="sans-serif" font-size="13" font-weight="bold" lengthAdjust="spacing" textLength="7.23" x="970.6597" y="340.9678">7</text><text fill="#000000" font-family="sans-serif" font-size="13" lengthAdjust="spacing" textLength="247.8125" x="981.8896" y="340.9678">GetEventStatisticsByUsername(username)</text><polygon fill="#181818" points="1011.8457,373.5215,1021.8457,377.5215,1011.8457,381.5215,1015.8457,377.5215" style="stroke:#181818;stroke-width:1.0;"/><line style="stroke:#181818;stroke-width:1.0;" x1="535.0752" x2="1017.8457" y1="377.5215" y2="377.5215"/><text fill="#000000" font-family="sans-serif" font-size="13" font-weight="bold" lengthAdjust="spacing" textLength="7.23" x="542.0752" y="372.2588">8</text><text fill="#000000" font-family="sans-serif" font-size="13" lengthAdjust="spacing" textLength="270.918" x="553.3052" y="372.2588">GetCommentStatisticsByUsername(username)</text><rect fill="#E2E2F0" height="32.6211" rx="2.5" ry="2.5" style="stroke:#181818;stroke-width:0.5;" width="125.2549" x="1023.8457" y="354.2305"/><text fill="#000000" font-family="sans-serif" font-size="14" lengthAdjust="spacing" textLength="111.2549" x="1030.8457" y="376.3379">Comment Service</text><polygon fill="#181818" points="1380.6211,417.1426,1390.6211,421.1426,1380.6211,425.1426,1384.6211,421.1426" style="stroke:#181818;stroke-width:1.0;"/><line style="stroke:#181818;stroke-width:1.0;" x1="1086.4731" x2="1386.6211" y1="421.1426" y2="421.1426"/><text fill="#000000" font-family="sans-serif" font-size="13" font-weight="bold" lengthAdjust="spacing" textLength="7.23" x="1093.4731" y="415.8799">9</text><text fill="#000000" font-family="sans-serif" font-size="13" lengthAdjust="spacing" textLength="270.918" x="1104.7031" y="415.8799">GetCommentStatisticsByUsername(username)</text><polygon fill="#181818" points="1097.4731,448.4336,1087.4731,452.4336,1097.4731,456.4336,1093.4731,452.4336" style="stroke:#181818;stroke-width:1.0;"/><line style="stroke:#181818;stroke-width:1.0;" x1="1091.4731" x2="1396.6211" y1="452.4336" y2="452.4336"/><text fill="#000000" font-family="sans-serif" font-size="13" font-weight="bold" lengthAdjust="spacing" textLength="14.46" x="1103.4731" y="447.1709">10</text><text fill="#000000" font-family="sans-serif" font-size="13" lengthAdjust="spacing" textLength="188.5508" x="1121.9331" y="447.1709">return CommentStatisticsByUser</text><polygon fill="#181818" points="546.0752,479.7246,536.0752,483.7246,546.0752,487.7246,542.0752,483.7246" style="stroke:#181818;stroke-width:1.0;"/><line style="stroke:#181818;stroke-width:1.0;" x1="540.0752" x2="1085.4731" y1="483.7246" y2="483.7246"/><text fill="#000000" font-family="sans-serif" font-size="13" font-weight="bold" lengthAdjust="spacing" textLength="14.46" x="552.0752" y="478.4619">11</text><text fill="#000000" font-family="sans-serif" font-size="13" lengthAdjust="spacing" textLength="188.5508" x="570.5352" y="478.4619">return CommentStatisticsByUser</text><polygon fill="#181818" points="974.6597,511.0156,964.6597,515.0156,974.6597,519.0156,970.6597,515.0156" style="stroke:#181818;stroke-width:1.0;"/><line style="stroke:#181818;stroke-width:1.0;" x1="968.6597" x2="1396.6211" y1="515.0156" y2="515.0156"/><text fill="#000000" font-family="sans-serif" font-size="13" font-weight="bold" lengthAdjust="spacing" textLength="14.46" x="980.6597" y="509.7529">12</text><text fill="#000000" font-family="sans-serif" font-size="13" lengthAdjust="spacing" textLength="178.4453" x="999.1196" y="509.7529">return EventsStatiscticsByUser</text><polygon fill="#181818" points="546.0752,542.3066,536.0752,546.3066,546.0752,550.3066,542.0752,546.3066" style="stroke:#181818;stroke-width:1.0;"/><line style="stroke:#181818;stroke-width:1.0;" x1="540.0752" x2="962.6597" y1="546.3066" y2="546.3066"/><text fill="#000000" font-family="sans-serif" font-size="13" font-weight="bold" lengthAdjust="spacing" textLength="14.46" x="552.0752" y="541.0439">13</text><text fill="#000000" font-family="sans-serif" font-size="13" lengthAdjust="spacing" textLength="178.4453" x="570.5352" y="541.0439">return EventsStatiscticsByUser</text><polygon fill="#181818" points="868.1807,573.5977,858.1807,577.5977,868.1807,581.5977,864.1807,577.5977" style="stroke:#181818;stroke-width:1.0;"/><line style="stroke:#181818;stroke-width:1.0;" x1="862.1807" x2="1396.6211" y1="577.5977" y2="577.5977"/><text fill="#000000" font-family="sans-serif" font-size="13" font-weight="bold" lengthAdjust="spacing" textLength="14.46" x="874.1807" y="572.335">14</text><text fill="#000000" font-family="sans-serif" font-size="13" lengthAdjust="spacing" textLength="158.2153" x="892.6406" y="572.335">return PostStatisticsByUser</text><polygon fill="#181818" points="546.0752,604.8887,536.0752,608.8887,546.0752,612.8887,542.0752,608.8887" style="stroke:#181818;stroke-width:1.0;"/><line style="stroke:#181818;stroke-width:1.0;" x1="540.0752" x2="856.1807" y1="608.8887" y2="608.8887"/><text fill="#000000" font-family="sans-serif" font-size="13" font-weight="bold" lengthAdjust="spacing" textLength="14.46" x="552.0752" y="603.626">15</text><text fill="#000000" font-family="sans-serif" font-size="13" lengthAdjust="spacing" textLength="158.2153" x="570.5352" y="603.626">return PostStatisticsByUser</text><polygon fill="#181818" points="364.2354,636.1797,354.2354,640.1797,364.2354,644.1797,360.2354,640.1797" style="stroke:#181818;stroke-width:1.0;"/><line style="stroke:#181818;stroke-width:1.0;" x1="358.2354" x2="529.0752" y1="640.1797" y2="640.1797"/><text fill="#000000" font-family="sans-serif" font-size="13" font-weight="bold" lengthAdjust="spacing" textLength="14.46" x="370.2354" y="634.917">16</text><text fill="#000000" font-family="sans-serif" font-size="13" lengthAdjust="spacing" textLength="99.7026" x="388.6953" y="634.917">Return UserStats</text><polygon fill="#181818" points="182.3955,667.4707,172.3955,671.4707,182.3955,675.4707,178.3955,671.4707" style="stroke:#181818;stroke-width:1.0;"/><line style="stroke:#181818;stroke-width:1.0;" x1="176.3955" x2="347.2354" y1="671.4707" y2="671.4707"/><text fill="#000000" font-family="sans-serif" font-size="13" font-weight="bold" lengthAdjust="spacing" textLength="14.46" x="188.3955" y="666.208">17</text><text fill="#000000" font-family="sans-serif" font-size="13" lengthAdjust="spacing" textLength="99.7026" x="206.8555" y="666.208">Return UserStats</text><polygon fill="#181818" points="33.7793,698.7617,23.7793,702.7617,33.7793,706.7617,29.7793,702.7617" style="stroke:#181818;stroke-width:1.0;"/><line style="stroke:#181818;stroke-width:1.0;" x1="27.7793" x2="165.3955" y1="702.7617" y2="702.7617"/><text fill="#000000" font-family="sans-serif" font-size="13" font-weight="bold" lengthAdjust="spacing" textLength="14.46" x="39.7793" y="697.499">18</text><text fill="#000000" font-family="sans-serif" font-size="13" lengthAdjust="spacing" textLength="73.6899" x="58.2393" y="697.499">Display stats</text><!--SRC=[ZPJBRi8m44Nt_efHkcWBIX5R5aYGfeWT0kK3JB22HMAdzWJ1tzSJyY0y6jZEkJwU6OVtFM9k9wDHddA5HPP-nJeRMV5R21KBVoTvOdZ6K68gm8kiC32BKHubdc637AL56LkFCLwWLaMs5OO9XLGkQG-uXOYnhJw1zsEqGZzKEm_UKfdiCPVgm79kt1aoTtwNMO8FipnFPUmEr-gINtQXXH52ITG6Di8SPInAQh6PEVKEdAhopNby81sCQs52oMU71UvsHgTfTUjvE0www4fRx2XNc_4yx3BXqRNVWS9xAD1PTei5Zp25ueHUsrO4_jIDOpYSm9fsvEvJq4wiMuLbDBmfpO7gYK1Q02t9VX2aU2O-cQiIHCtzGr6PiBB1mM022u7KVRlo-JcgwAjOYLEkkJevNilMol1AMGwp9nVUEL-ErihWIbcjfYSPt4jVph8cKwjzVm96O64KF3cY5TATYUyBj9Pcg8sad8szHEAhJ7WhwU6xZbN7yMZZxVku4Jo4c_Mu9qli-i8spxL-oj7oOVNoCKHK-vRM_RsTgw_4_Vu0]--></g></svg>